<svg width="30" height="30" viewBox="0 0 30 30" fill="none" xmlns="http://www.w3.org/2000/svg">
<path d="M0 15C0 6.71575 6.71575 0 15 0C23.2843 0 30 6.71575 30 15C30 23.2843 23.2843 30 15 30C6.71575 30 0 23.2843 0 15Z" fill="#FFE812"/>
<path d="M15 6.875C9.47712 6.875 5 10.4051 5 14.7596C5 17.5749 6.87175 20.0452 9.68731 21.4401C9.53412 21.9684 8.703 24.8386 8.66987 25.0641C8.66987 25.0641 8.65 25.2334 8.75969 25.2981C8.86944 25.3627 8.99844 25.3125 8.99844 25.3125C9.31306 25.2686 12.6468 22.9268 13.2239 22.5202C13.8003 22.6018 14.3939 22.6443 15 22.6443C20.5229 22.6443 25 19.1143 25 14.7596C25 10.4051 20.5229 6.875 15 6.875Z" fill="#381F1F"/>
<path d="M10.9482 12.4038C11.2602 12.4039 11.5144 12.6571 11.5146 12.9683C11.5146 13.2797 11.2603 13.5336 10.9482 13.5337H10.0479V16.9614C10.0476 17.2651 9.78874 17.5122 9.4707 17.5122C9.15279 17.5121 8.89477 17.265 8.89453 16.9614V13.5337H7.99414C7.68195 13.5337 7.42773 13.2797 7.42773 12.9683C7.42796 12.657 7.68216 12.4038 7.99414 12.4038H10.9482ZM12.8838 12.4038C13.2606 12.4123 13.5559 12.6973 13.6533 12.9741L15.0332 16.605C15.2085 17.15 15.0555 17.3522 14.8965 17.4253C14.7816 17.4777 14.6566 17.5044 14.5303 17.5044C14.2897 17.5044 14.1053 17.4066 14.0498 17.2495L13.7637 16.5015H12.0049L11.7188 17.2505C11.6632 17.407 11.4795 17.5044 11.2393 17.5044C11.1127 17.5045 10.9871 17.4779 10.8721 17.4253C10.7131 17.3519 10.5604 17.1496 10.7354 16.606L12.1152 12.9731C12.2125 12.6969 12.5081 12.4125 12.8838 12.4038ZM19.167 12.4038C19.485 12.4041 19.7432 12.6629 19.7432 12.981V14.2212L21.3535 12.6108C21.4362 12.5283 21.5496 12.483 21.6729 12.4829C21.8168 12.4829 21.9619 12.5446 22.0703 12.6528C22.1714 12.7538 22.2309 12.8842 22.2393 13.019C22.2476 13.1551 22.2026 13.2802 22.1123 13.3706L20.7979 14.6851L22.2178 16.5659C22.2636 16.6263 22.2974 16.6957 22.3164 16.769C22.3354 16.8423 22.3389 16.9188 22.3281 16.9937C22.3179 17.0686 22.2932 17.1413 22.2549 17.2065C22.2165 17.2717 22.165 17.3282 22.1045 17.3735C22.0048 17.4494 21.8831 17.4909 21.7578 17.4907C21.6684 17.4911 21.58 17.47 21.5 17.4302C21.4201 17.3903 21.3504 17.3327 21.2969 17.2612L19.9443 15.4683L19.7441 15.6685V16.9272C19.744 17.0803 19.6824 17.2273 19.5742 17.3354C19.4662 17.4434 19.3197 17.504 19.167 17.5044C18.8488 17.5044 18.5898 17.2454 18.5898 16.9272V12.981C18.5898 12.6628 18.8488 12.4038 19.167 12.4038ZM15.9971 12.4038C16.3218 12.4038 16.5859 12.6628 16.5859 12.981V16.3706H17.8125C18.1173 16.3707 18.3652 16.6075 18.3652 16.8989C18.3652 17.1904 18.1173 17.4281 17.8125 17.4282H15.9609C15.6562 17.428 15.4082 17.1904 15.4082 16.8989V12.981C15.4082 12.6629 15.6725 12.404 15.9971 12.4038ZM12.3086 15.48H13.4609L12.8848 13.8433L12.3086 15.48Z" fill="#FFE812"/>
</svg>
