<svg width="30" height="30" viewBox="0 0 30 30" fill="none" xmlns="http://www.w3.org/2000/svg">
<g clip-path="url(#clip0_383_70)">
<path d="M21.9999 10H20.7499V7.5C20.7499 4.05 17.9499 1.25 14.4999 1.25C11.0499 1.25 8.24994 4.05 8.24994 7.5V10H6.99994C5.62494 10 4.49994 11.125 4.49994 12.5V25C4.49994 26.375 5.62494 27.5 6.99994 27.5H21.9999C23.3749 27.5 24.4999 26.375 24.4999 25V12.5C24.4999 11.125 23.3749 10 21.9999 10ZM14.4999 21.25C13.1249 21.25 11.9999 20.125 11.9999 18.75C11.9999 17.375 13.1249 16.25 14.4999 16.25C15.8749 16.25 16.9999 17.375 16.9999 18.75C16.9999 20.125 15.8749 21.25 14.4999 21.25ZM18.3749 10H10.6249V7.5C10.6249 5.3625 12.3624 3.625 14.4999 3.625C16.6374 3.625 18.3749 5.3625 18.3749 7.5V10Z" fill="#FF822E"/>
</g>
<defs>
<clipPath id="clip0_383_70">
<rect width="30" height="30" fill="white"/>
</clipPath>
</defs>
</svg>
