<svg width="30" height="30" viewBox="0 0 30 30" fill="none" xmlns="http://www.w3.org/2000/svg">
<path d="M1.44336 28.1546C0.883069 28.1546 0.46894 27.911 0.200974 27.4238C-0.0669915 26.9366 -0.0669915 26.4494 0.200974 25.9621L13.7211 2.57603C13.989 2.08882 14.4153 1.84521 15 1.84521C15.5847 1.84521 16.011 2.08882 16.2789 2.57603L29.799 25.9621C30.067 26.4494 30.067 26.9366 29.799 27.4238C29.5311 27.911 29.1169 28.1546 28.5566 28.1546H1.44336ZM15 12.0766C14.5859 12.0766 14.239 12.2165 13.9593 12.4961C13.6787 12.7768 13.5384 13.1241 13.5384 13.5383V17.9232C13.5384 18.3373 13.6787 18.6842 13.9593 18.9639C14.239 19.2445 14.5859 19.3848 15 19.3848C15.4141 19.3848 15.7615 19.2445 16.0421 18.9639C16.3218 18.6842 16.4616 18.3373 16.4616 17.9232V13.5383C16.4616 13.1241 16.3218 12.7768 16.0421 12.4961C15.7615 12.2165 15.4141 12.0766 15 12.0766ZM15 23.7697C15.4141 23.7697 15.7615 23.6294 16.0421 23.3487C16.3218 23.0691 16.4616 22.7222 16.4616 22.3081C16.4616 21.8939 16.3218 21.547 16.0421 21.2674C15.7615 20.9868 15.4141 20.8464 15 20.8464C14.5859 20.8464 14.239 20.9868 13.9593 21.2674C13.6787 21.547 13.5384 21.8939 13.5384 22.3081C13.5384 22.7222 13.6787 23.0691 13.9593 23.3487C14.239 23.6294 14.5859 23.7697 15 23.7697Z" fill="#FF5252"/>
</svg>
